<!--
* SPDX-FileCopyrightText: © 2026 Liferay, Inc. <https://liferay.com>
* SPDX-FileCopyrightText: © 2026 Contributors to the project Clay <https://github.com/liferay/clay/graphs/contributors>
*
* SPDX-License-Identifier: BSD-3-Clause
-->
<svg viewBox="0 0 16 16" xmlns="http://www.w3.org/2000/svg">
	<path class="lexicon-icon-outline" d="M9.07072 7.4454C9.07072 8.03024 8.58905 8.50874 8 8.50874C7.40997 8.50874 6.92829 8.03024 6.92829 7.4454V1.06541C6.92829 0.480575 7.40997 0.0020752 8 0.0020752C8.58905 0.0020752 9.07072 0.480575 9.07072 1.06541V7.4454Z" />
	<path class="lexicon-icon-outline" d="M13 3.01144C13.7792 3.70274 14.3928 4.52951 14.8253 5.46887C15.2734 6.44198 15.5 7.48159 15.5 8.55875C15.5 9.56313 15.302 10.538 14.91 11.4564C14.5327 12.3428 13.9919 13.1387 13.3034 13.822C12.6149 14.5052 11.813 15.0418 10.9196 15.4167C9.99468 15.8051 9.01261 16.0021 8 16.0021C6.98838 16.0021 6.00532 15.8052 5.08038 15.4167C4.18696 15.0418 3.38515 14.5052 2.69661 13.822C2.00808 13.1388 1.4673 12.3428 1.09003 11.4564C0.697991 10.538 0.5 9.56313 0.5 8.55875C0.5 7.48159 0.727541 6.44198 1.17474 5.46883C1.60717 4.52945 2.22183 3.70261 3 3.01134C3.44031 2.61967 4.11801 2.65692 4.513 3.09448C4.90701 3.53204 4.86958 4.20427 4.42927 4.59594C3.87175 5.09045 3.43341 5.68147 3.12411 6.3526C2.80496 7.04642 2.64243 7.78866 2.64243 8.55875C2.64243 9.97886 3.19996 11.314 4.21158 12.3182C5.22419 13.3224 6.56875 13.8754 8 13.8754C9.43124 13.8754 10.7768 13.3224 11.7884 12.3182C12.8 11.314 13.3576 9.97889 13.3576 8.55875C13.3576 7.78869 13.195 7.04649 12.8759 6.3527C12.5666 5.6816 12.1283 5.09062 11.5717 4.59607C11.1304 4.2044 11.093 3.53217 11.488 3.09458C11.882 2.65698 12.5597 2.61977 13 3.01144Z" />
</svg>